# xmcd CD database file
#
# Track frame offsets:
#	183
#	17740
#	31608
#	49533
#	72553
#	88853
#	116285
#	143158
#	168988
#	185730
#	197500
#	220998
#	237960
#	255030
#	272745
#	289020
#	319318
#
# Disc length: 4612 seconds
#
# Revision: 3
# Processed by: cddbd v1.4PL0 Copyright (c) Steve Scherf et al.
# Submitted via: CDex 1.50beta9
#
DISCID=ee120211
DTITLE=Robin Trower - The Collection
DYEAR=1991
DGENRE=Rock
TTITLE0=Twice Removed From Yesterday
TTITLE1=Alethea
TTITLE2=The Fool And Me
TTITLE3=Bridge Of Sighs
TTITLE4=Shame The Devil
TTITLE5=For Earth Below
TTITLE6=Rock Me Baby
TTITLE7=Long Misty Days
TTITLE8=Caledonia
TTITLE9=Farther On Up The Road
TTITLE10=In City Dreams
TTITLE11=Victims Of The Fury
TTITLE12=Fool
TTITLE13=Messin' The Blues
TTITLE14=Time Is Short
TTITLE15=Too Rolling Stoned
TTITLE16=Little Bit Of Sympathy
EXTD=YEAR: 1991
EXTT0=
EXTT1=
EXTT2=
EXTT3=
EXTT4=
EXTT5=
EXTT6=
EXTT7=
EXTT8=
EXTT9=
EXTT10=
EXTT11=
EXTT12=
EXTT13=
EXTT14=
EXTT15=
EXTT16=
PLAYORDER=
